<!--?xml version="1.0" standalone="no"?-->
              <svg id="sw-js-blob-svg" viewBox="0 0 100 100" xmlns="http://www.w3.org/2000/svg" version="1.1">
                    <defs> 
                        <linearGradient id="sw-gradient" x1="0" x2="1" y1="1" y2="0">
                            <stop id="stop1" stop-color="rgba(235, 226, 196, 1)" offset="0%"></stop>
                            <stop id="stop2" stop-color="rgba(235, 226, 196, 1)" offset="100%"></stop>
                        </linearGradient>
                    </defs>
                <path fill="rgba(235, 226, 196, 1)" d="M26.4,-31C32.1,-26.6,33.3,-16.4,35,-6.2C36.8,4,39.2,14,35.7,21.1C32.1,28.1,22.7,32.3,13.8,33.7C4.9,35.2,-3.5,33.9,-9.8,30.2C-16.1,26.5,-20.2,20.3,-25.8,13.5C-31.3,6.7,-38.2,-0.6,-38.6,-8.3C-39.1,-16,-33,-24.1,-25.5,-28.2C-18,-32.2,-9,-32.3,0.7,-33.1C10.3,-33.9,20.7,-35.4,26.4,-31Z" width="100%" height="100%" transform="translate(50 50)" stroke-width="0" style="transition: 0.3s;" stroke="rgba(235, 226, 196, 1)"></path>
              </svg>