<!--?xml version="1.0" standalone="no"?-->
              <svg id="sw-js-blob-svg" viewBox="0 0 100 100" xmlns="http://www.w3.org/2000/svg" version="1.1">
                    <defs> 
                        <linearGradient id="sw-gradient" x1="0" x2="1" y1="1" y2="0">
                            <stop id="stop1" stop-color="rgba(235, 226, 196, 1)" offset="0%"></stop>
                            <stop id="stop2" stop-color="rgba(235, 226, 196, 1)" offset="100%"></stop>
                        </linearGradient>
                    </defs>
                <path fill="rgba(235, 226, 196, 1)" d="M15.3,-22.6C21,-16.9,27.6,-14,26.5,-10.3C25.4,-6.6,16.6,-2,12.6,2.2C8.6,6.4,9.5,10.3,8.2,16.1C6.9,21.9,3.4,29.7,-1.1,31.2C-5.7,32.8,-11.4,28.2,-16,23.4C-20.6,18.7,-24.1,13.8,-25.6,8.5C-27.1,3.2,-26.6,-2.7,-26.7,-10.6C-26.7,-18.5,-27.3,-28.5,-23,-34.6C-18.6,-40.7,-9.3,-42.9,-2.3,-39.8C4.8,-36.7,9.6,-28.2,15.3,-22.6Z" width="100%" height="100%" transform="translate(50 50)" stroke-width="0" style="transition: 0.3s;" stroke="rgba(235, 226, 196, 1)"></path>
              </svg>