<!--?xml version="1.0" standalone="no"?-->
              <svg id="sw-js-blob-svg" viewBox="0 0 100 100" xmlns="http://www.w3.org/2000/svg" version="1.1">
                    <defs> 
                        <linearGradient id="sw-gradient" x1="0" x2="1" y1="1" y2="0">
                            <stop id="stop1" stop-color="rgba(235, 226, 196, 1)" offset="0%"></stop>
                            <stop id="stop2" stop-color="rgba(235, 226, 196, 1)" offset="100%"></stop>
                        </linearGradient>
                    </defs>
                <path fill="rgba(235, 226, 196, 1)" d="M15.2,-19C18.5,-18.6,19,-12.5,19.7,-7.2C20.3,-1.9,21.1,2.6,18.6,4.7C16,6.7,10.2,6.4,6.5,12.9C2.9,19.5,1.4,33,-0.9,34.3C-3.3,35.5,-6.6,24.5,-8.8,17.5C-11.1,10.5,-12.4,7.5,-13.9,4.2C-15.4,0.9,-17.2,-2.6,-18.6,-8.4C-20,-14.2,-21,-22.3,-17.9,-22.7C-14.7,-23.1,-7.3,-15.9,-0.7,-15C6,-14.1,12,-19.4,15.2,-19Z" width="100%" height="100%" transform="translate(50 50)" stroke-width="0" style="transition: 0.3s;" stroke="rgba(235, 226, 196, 1)"></path>
              </svg>