<!--?xml version="1.0" standalone="no"?-->
              <svg id="sw-js-blob-svg" viewBox="0 0 100 100" xmlns="http://www.w3.org/2000/svg" version="1.1">
                    <defs> 
                        <linearGradient id="sw-gradient" x1="0" x2="1" y1="1" y2="0">
                            <stop id="stop1" stop-color="rgba(235, 226, 196, 1)" offset="0%"></stop>
                            <stop id="stop2" stop-color="rgba(235, 226, 196, 1)" offset="100%"></stop>
                        </linearGradient>
                    </defs>
                <path fill="rgba(235, 226, 196, 1)" d="M17.4,-20.9C21.7,-17.1,23.9,-10.8,24.6,-4.6C25.4,1.6,24.9,7.8,23.2,15.9C21.5,23.9,18.7,33.9,13.2,35.5C7.7,37.1,-0.5,30.5,-9.9,27.1C-19.3,23.7,-30,23.6,-34.8,18.5C-39.6,13.4,-38.5,3.4,-36.8,-6.5C-35.1,-16.5,-32.8,-26.4,-26.5,-29.9C-20.3,-33.4,-10.1,-30.5,-1.8,-28.4C6.5,-26.2,13.1,-24.8,17.4,-20.9Z" width="100%" height="100%" transform="translate(50 50)" stroke-width="0" style="transition: 0.3s;" stroke="rgba(235, 226, 196, 1)"></path>
              </svg>