<!--?xml version="1.0" standalone="no"?-->
              <svg id="sw-js-blob-svg" viewBox="0 0 100 100" xmlns="http://www.w3.org/2000/svg" version="1.1">
                    <defs> 
                        <linearGradient id="sw-gradient" x1="0" x2="1" y1="1" y2="0">
                            <stop id="stop1" stop-color="rgba(235, 226, 196, 1)" offset="0%"></stop>
                            <stop id="stop2" stop-color="rgba(235, 226, 196, 1)" offset="100%"></stop>
                        </linearGradient>
                    </defs>
                <path fill="rgba(235, 226, 196, 1)" d="M9.7,-15.6C13.7,-10.4,18.8,-9.1,21.7,-5.7C24.6,-2.4,25.3,3,23,6.7C20.7,10.3,15.4,12.1,11.1,18.6C6.7,25.1,3.4,36.4,-1.3,38.1C-5.9,39.8,-11.8,32.1,-18.3,26.3C-24.8,20.4,-32,16.6,-30.5,12.1C-29,7.6,-18.9,2.4,-15.6,-4.3C-12.3,-10.9,-16,-18.9,-14.5,-24.9C-13.1,-30.9,-6.5,-34.9,-1.8,-32.3C2.9,-29.8,5.7,-20.8,9.7,-15.6Z" width="100%" height="100%" transform="translate(50 50)" stroke-width="0" style="transition: 0.3s;" stroke="rgba(235, 226, 196, 1)"></path>
              </svg>