<!--?xml version="1.0" standalone="no"?-->
              <svg id="sw-js-blob-svg" viewBox="0 0 100 100" xmlns="http://www.w3.org/2000/svg" version="1.1">
                    <defs> 
                        <linearGradient id="sw-gradient" x1="0" x2="1" y1="1" y2="0">
                            <stop id="stop1" stop-color="rgba(235, 226, 196, 1)" offset="0%"></stop>
                            <stop id="stop2" stop-color="rgba(235, 226, 196, 1)" offset="100%"></stop>
                        </linearGradient>
                    </defs>
                <path fill="rgba(235, 226, 196, 1)" d="M24.8,-30C30.6,-24.7,32.7,-15.4,32.8,-6.9C32.9,1.5,31,9.2,27.6,16.8C24.3,24.5,19.4,32.2,12.6,34.9C5.7,37.5,-3.1,35.1,-10.3,31.2C-17.5,27.3,-23,21.9,-28.7,15.1C-34.4,8.3,-40.2,0.1,-38.6,-6.5C-37.1,-13,-28.1,-17.9,-20.4,-22.9C-12.8,-27.9,-6.4,-33,1.6,-34.8C9.5,-36.7,19,-35.3,24.8,-30Z" width="100%" height="100%" transform="translate(50 50)" stroke-width="0" style="transition: 0.3s;" stroke="rgba(235, 226, 196, 1)"></path>
              </svg>